<svg width="180" height="87" viewBox="0 0 180 87" fill="none" xmlns="http://www.w3.org/2000/svg">
<path d="M20.765 57.8637C14.4675 57.8637 8.16998 57.8637 1.87248 57.8637C0.727483 57.8637 0.383984 57.52 0.383984 56.3743C0.441234 52.88 0.441234 49.3284 0.383984 45.8341C0.383984 44.803 0.670234 44.4593 1.70073 44.5166C4.04798 44.5739 6.39523 44.5739 8.74247 44.5166C9.88747 44.4593 10.231 44.9176 10.1165 45.9487C10.1165 46.1206 10.1165 46.3497 10.1165 46.5215C9.88747 47.7818 10.3455 48.1828 11.7195 48.1828C20.307 48.1255 28.8945 48.1255 37.5392 48.1255C38.6269 48.1255 39.6002 48.0109 40.6879 47.7818C42.9779 47.2089 45.4397 43.8292 45.6114 42.2825C45.9549 39.1319 44.3519 36.0959 41.8902 35.0075C40.8597 34.5492 39.9437 34.3201 38.7987 34.3201C31.4135 34.3774 24.0282 34.4347 16.643 34.3201C12.9217 34.2628 9.60123 32.888 6.50973 30.6539C3.36098 28.4199 1.58623 25.3266 0.670234 21.8895C0.0977348 19.8273 -0.245764 17.5933 0.212235 15.1873C0.784734 11.9795 2.27323 9.40168 3.76173 6.76663C4.56323 5.33454 6.10898 4.36071 7.54023 3.44417C10.9752 1.21011 14.7537 0.522705 18.7612 0.522705C30.2112 0.579989 41.6612 0.522705 53.0539 0.522705C55.1149 0.522705 55.2294 0.694557 55.2867 2.6422C55.2867 6.13651 55.2294 9.57353 55.2867 13.0678C55.2867 14.0989 55.0004 14.4427 53.9699 14.3854C51.6227 14.3281 49.2754 14.3281 46.9282 14.3854C45.7832 14.4427 45.5542 13.9844 45.5542 12.9533C45.6114 10.8338 45.4969 11.0629 43.3787 10.7765C34.9057 9.6881 26.4327 10.4901 18.017 10.2609C15.727 10.2037 13.6087 10.8338 11.8912 12.4377C9.65847 14.5572 9.48672 18.8535 11.2615 21.374C12.6355 23.3216 14.2957 23.9518 16.7002 24.1236C24.9442 24.6964 33.2455 24.5246 41.4894 24.6392C43.7794 24.6964 45.8404 25.8994 47.7297 27.0451C51.1074 29.1073 53.3974 32.2006 54.5424 36.0386C55.9164 40.564 55.8019 45.0895 53.3974 49.1566C51.2792 52.7655 48.1877 55.5724 44.0084 56.9472C41.9474 57.6346 39.8292 57.8637 37.5964 57.8637C31.986 57.8064 26.3755 57.8637 20.765 57.8637Z" fill="#0EAD4A"/>
<path d="M118.375 29.8517C118.375 38.9598 118.318 48.0679 118.433 57.1187C118.433 58.5508 117.975 58.8945 116.601 58.8945C113.452 58.78 110.36 58.8373 107.212 58.8945C106.238 58.8945 105.952 58.6081 105.952 57.6343C106.009 55.2284 106.009 52.8225 105.952 50.4738C105.952 49.5573 106.181 49.0417 107.154 49.2136C108.299 49.3854 108.643 48.8699 108.643 47.7242C108.586 43.7144 108.586 39.7045 108.643 35.6946C108.643 34.6635 108.357 34.3771 107.326 34.3771C99.3111 34.4344 91.2961 34.148 83.2812 34.4917C80.5332 34.6062 77.7852 34.8354 75.0944 34.8927C74.4647 34.8927 74.2357 35.1791 74.2357 35.8092C74.2357 39.9909 74.2357 44.1153 74.2357 48.297C74.2357 49.2709 74.8082 49.2136 75.4952 49.2709C77.8997 49.3282 77.8997 49.3282 77.8997 51.6768C77.8997 53.5672 77.8424 55.5148 77.8997 57.4052C77.9569 58.6081 77.6707 59.0091 76.3539 59.0091C72.9189 58.8945 69.4839 58.8945 66.1062 59.0091C64.7322 59.0664 64.3887 58.6654 64.3887 57.2906C64.4459 43.1415 64.4459 29.0497 64.4459 14.9006C64.4459 10.8335 64.5032 6.76635 64.4459 2.69921C64.4459 1.55353 64.7322 1.15254 65.9344 1.15254C69.4839 1.20983 73.0907 1.20983 76.6402 1.15254C77.7279 1.15254 77.9569 1.49625 77.9569 2.52735C77.8997 4.87599 77.8997 7.22462 77.9569 9.57325C77.9569 10.5471 77.7279 11.0626 76.6402 10.8908C76.3539 10.8335 76.0677 10.8908 75.7814 10.8908C74.6364 10.7189 74.2357 11.1772 74.2929 12.3802C74.3502 16.1036 74.2929 19.827 74.2929 23.5505C74.3502 24.9826 74.6364 24.8107 76.1822 24.8107C77.0409 24.8107 78.0714 24.7534 78.8729 24.7534C88.3191 24.7534 97.7654 24.7534 107.154 24.8107C108.357 24.8107 108.757 24.467 108.7 23.2641C108.643 19.4833 108.643 15.7599 108.7 11.9792C108.7 10.7189 108.242 10.2607 107.097 10.4325C105.838 10.6044 105.38 10.1461 105.437 8.82856C105.551 6.47993 105.494 4.1313 105.437 1.78267C105.437 0.923411 105.723 0.694275 106.525 0.694275C110.017 0.751559 113.566 0.751559 117.059 0.694275C118.261 0.694275 118.318 1.3244 118.318 2.29822C118.375 11.349 118.375 20.629 118.375 29.8517Z" fill="#0EAD4A"/>
<path d="M176.249 44.7457C177.279 44.6884 177.623 45.0321 177.508 46.4642C177.165 49.8439 177.165 53.281 177.508 56.6607C177.68 58.1501 177.279 58.4365 176.191 58.4365C167.776 58.3792 159.36 58.5511 151.001 58.3219C148.597 58.2646 146.135 57.4054 143.788 56.6034C138.75 54.8276 134.972 51.4479 131.537 47.6099C129.647 45.4904 128.273 42.9699 127.3 40.2776C126.613 38.3872 125.812 36.4968 125.525 34.5492C125.182 32.5442 125.354 30.482 125.296 28.4198C125.182 24.7537 126.155 21.3166 127.415 17.9369C128.216 15.7601 129.59 13.8125 130.964 11.9221C131.88 10.6619 132.911 9.51619 133.998 8.4278C137.834 4.76164 142.242 2.24116 147.452 0.980919C150.601 0.236231 153.692 -0.0501882 156.898 0.0070955C163.367 0.0643792 169.779 0.121663 176.249 0.121663C177.623 0.121663 177.852 0.637218 177.68 2.35573C177.394 5.79275 177.394 9.17249 177.68 12.6095C177.852 14.2135 177.451 14.6717 176.191 14.5572C175.562 14.4999 170.066 14.6144 169.55 14.5572C168.005 14.4426 167.776 14.0989 167.833 12.7241C167.89 9.40163 168.291 9.8599 164.97 9.8599C160.734 9.8599 156.44 9.68804 152.261 10.0317C148.94 10.2609 145.963 11.6357 143.158 13.5833C140.582 15.3591 138.75 17.6505 137.262 20.171C136.117 22.1186 135.315 24.3527 135.315 26.7013C135.315 29.1645 134.914 31.685 135.659 34.0909C136.403 36.6114 137.319 39.1319 139.151 41.1368C140.983 43.199 142.986 45.0894 145.448 46.4642C146.822 47.2089 148.311 47.7817 149.856 48.1254C155.524 49.2138 161.192 48.3546 166.86 48.641C167.432 48.6983 168.005 48.5264 167.89 47.7817C167.947 46.9225 168.005 46.1205 168.005 45.6049C168.005 45.204 168.348 44.8603 168.749 44.8603C170.581 44.803 175.791 44.7457 176.249 44.7457Z" fill="#0EAD4A"/>
<path d="M152.788 70.2716C144.863 70.2716 9.93477 70.2716 2.00947 70.2716C1.04559 70.2716 0.617188 70.1511 0.617188 68.8855C0.617188 67.6802 0.938486 67.3186 2.00947 67.3186C17.753 67.3789 160.606 67.3789 176.35 67.3186C177.367 67.3186 177.796 67.4994 177.796 68.8252C177.796 70.2113 177.26 70.2716 176.35 70.2716C168.532 70.2716 160.66 70.2716 152.788 70.2716Z" fill="#FBFFFF"/>
<path d="M71.4737 82.1232C71.4737 82.9334 71.4737 83.6896 71.4737 84.4998C71.4737 86.3362 70.7341 86.8223 68.7999 86.3362C68.5724 86.2822 68.3448 86.2282 68.2879 85.9581C67.8328 84.3917 67.3208 82.8793 66.8657 81.313C66.8088 81.0429 66.8088 80.7188 66.4675 80.7188C65.9555 80.6648 65.9555 81.0429 65.9555 81.367C65.9555 82.6633 65.9555 83.9596 65.9555 85.2559C65.9555 85.9041 65.9555 86.3902 64.9884 86.3902C63.9644 86.3902 64.1351 85.7961 64.1351 85.2019C64.1351 83.1494 64.1351 81.0429 64.1351 78.9904C64.1351 78.3962 63.8506 77.532 65.0453 77.6941C66.0693 77.8021 67.4915 77.1539 67.719 78.7743C67.8897 80.0707 68.743 81.2049 68.743 82.5553C68.743 82.8253 68.9706 83.0954 69.3119 83.0414C69.7101 82.9874 69.6533 82.6633 69.6533 82.3932C69.6533 81.313 69.6533 80.1787 69.6533 79.0984C69.6533 78.5043 69.3119 77.6401 70.5635 77.6941C71.8719 77.7481 71.3599 78.6123 71.4168 79.1524C71.5306 80.0707 71.4737 81.0969 71.4737 82.1232ZM66.2968 79.8006C66.2968 79.8546 66.2399 79.8546 66.2399 79.9086C66.2968 80.0707 66.3537 80.0707 66.4106 79.9086C66.4106 79.9086 66.4106 79.8546 66.3537 79.8006C66.4106 79.8006 66.3537 79.8006 66.2968 79.8006Z" fill="#FBFFFF"/>
<path d="M120.209 82.283C120.102 82.941 120.369 83.7003 120.048 84.4595C119.085 86.8385 116.088 86.8891 114.215 85.9274C113.466 85.5224 113.359 84.7632 113.145 84.0546C112.717 82.8398 112.77 81.5744 113.038 80.3596C113.466 78.6386 115.232 77.4744 116.784 77.6769C119.352 77.9806 120.209 78.9423 120.209 81.3719C120.209 81.6756 120.209 81.9287 120.209 82.283ZM118.55 82.1818C118.55 81.7768 118.603 81.4225 118.55 81.0176C118.389 80.2583 117.961 79.6509 117.105 79.3472C116.463 79.1448 115.981 79.3472 115.553 79.8028C114.429 80.9163 114.376 83.2447 115.446 84.3583C116.035 84.9657 116.623 85.1175 117.479 84.7126C118.603 84.1052 118.55 83.1435 118.55 82.1818Z" fill="#FBFFFF"/>
<path d="M46.4032 81.9811C46.4032 80.8368 46.4603 79.638 46.4032 78.4937C46.346 77.7309 46.803 77.6764 47.4312 77.6764C48.0024 77.7309 48.6878 77.5129 48.6307 78.4392C48.6307 78.8207 48.6878 79.2021 48.6307 79.529C48.4022 80.8368 48.9734 81.1638 50.3442 81.2727C52.5146 81.3817 51.8863 80.074 51.9434 79.0386C51.9434 78.2758 51.8292 77.5129 53.0857 77.6764C53.5426 77.7309 53.7711 77.8943 53.7711 78.3303C53.7711 80.7823 53.7711 83.2344 53.7711 85.741C53.7711 86.3949 53.4284 86.5038 52.8573 86.5038C52.2861 86.5038 51.8863 86.4494 51.9434 85.741C52.0005 85.3595 51.8863 84.9781 51.9434 84.6512C52.1719 83.3434 51.7149 82.9075 50.2299 82.9075C48.802 82.9075 48.5164 83.3434 48.5736 84.5967C48.5736 85.2506 49.3161 86.3949 47.7739 86.5038C46.8601 86.5583 46.2889 86.3949 46.4032 85.3051C46.4603 84.2152 46.4032 83.0709 46.4032 81.9811Z" fill="#FBFFFF"/>
<path d="M89.2066 82.2822C89.1424 82.984 89.2708 83.6858 89.0139 84.2873C88.4359 85.7911 86.124 86.7937 84.0689 86.4428C81.6285 86.0418 80.3441 85.1896 80.4084 83.0842C80.4084 81.9313 80.0873 80.7282 80.9221 79.5753C81.757 78.4224 83.6194 77.5201 85.0965 77.6705C87.7295 78.0214 89.0139 78.9738 89.1424 80.7784C89.2066 81.3298 89.1424 81.831 89.2066 82.2822ZM87.1515 82.3323C87.1515 82.0316 87.28 81.6807 87.1515 81.43C86.7662 80.628 86.7662 79.5753 85.2891 79.3247C84.2616 79.1242 83.6194 79.5753 83.2341 80.0766C82.2708 81.3298 82.0781 82.6331 82.9772 84.0367C83.3625 84.6382 84.0689 84.8888 84.7754 84.8888C85.546 84.8888 86.2524 84.6883 86.702 83.9865C87.0873 83.4351 87.1515 82.9339 87.1515 82.3323Z" fill="#FBFFFF"/>
<path d="M136.455 83.9237C136.455 86.196 136.027 86.6 133.215 86.499C130.648 86.4485 128.937 85.3376 129.12 83.1158C129.242 81.9039 128.753 80.6416 129.487 79.4802C130.22 78.3188 132.054 77.4099 133.46 77.7129C134.193 77.8644 134.927 78.0664 135.721 78.0159C136.699 78.0159 136.394 78.6218 136.394 79.0258C136.394 79.6317 135.966 79.5307 135.477 79.4297C133.704 78.9753 131.871 79.2782 131.382 80.2376C130.77 81.3485 130.954 83.8732 131.932 84.5802C132.665 85.1356 133.704 85.1356 134.315 84.6812C134.804 84.3277 134.804 83.5703 133.888 83.2168C133.215 82.9139 133.399 82.3079 133.643 81.9545C134.132 81.298 135.049 81.7525 135.782 81.6515C136.332 81.601 136.455 81.9544 136.455 82.3584C136.455 82.9138 136.455 83.4188 136.455 83.9237Z" fill="#FBFFFF"/>
<path d="M176.286 86.4621C175.494 86.5638 174.851 86.0554 174.109 86.0554C173.516 86.0554 173.713 85.3945 173.763 84.9878C173.812 84.4793 174.159 84.4793 174.505 84.6827C175.099 85.0386 175.742 84.8352 176.335 84.8861C176.979 84.9369 177.424 84.4285 177.523 83.9201C177.622 83.4117 177.078 83.005 176.583 82.8524C175.89 82.6999 175.297 82.2932 174.604 82.039C173.713 81.6831 173.367 80.8697 173.367 80.107C173.367 79.1919 173.911 78.3785 174.752 77.9717C175.989 77.3108 177.275 77.87 178.512 77.9717C179.106 78.0226 178.859 78.6835 178.859 79.0394C178.859 79.6495 178.314 79.5986 178.018 79.4461C177.424 79.1411 176.781 79.1411 176.187 79.1411C175.692 79.1411 175.445 79.4969 175.297 79.9545C175.148 80.5138 175.494 80.7171 175.89 80.9205C176.434 81.1239 176.979 81.3781 177.523 81.5814C178.661 81.9882 179.403 82.6999 179.254 84.0218C179.056 85.2928 177.82 86.4113 176.533 86.513C176.434 86.4621 176.335 86.4621 176.286 86.4621Z" fill="#FBFFFF"/>
<path d="M15.3828 82.0288C15.3828 80.8805 15.3828 79.6774 15.3828 78.529C15.3828 77.9822 15.5146 77.6541 16.3056 77.6541C18.0194 77.7087 19.6673 77.6541 21.381 77.6541C22.1061 77.6541 22.6334 77.9275 22.6993 78.529C22.7653 79.2946 21.9084 78.9665 21.447 78.9665C20.656 79.0212 19.865 79.0212 19.074 78.9665C17.8876 78.9665 17.558 79.4586 17.4921 80.3883C17.4921 81.3726 18.2171 81.2086 18.9422 81.2086C19.4695 81.2086 19.9309 81.2086 20.4582 81.2086C20.9856 81.2086 21.7106 81.0992 21.7106 81.8101C21.7106 82.4663 21.3151 82.9038 20.5242 82.9038C19.9968 82.9585 19.4036 82.9038 18.8104 82.9038C18.1512 82.9038 17.4921 82.7944 17.4921 83.7241C17.4921 84.5443 17.6898 85.1459 18.8104 85.1459C19.7991 85.1459 20.8537 85.1459 21.8424 85.1459C22.3038 85.1459 22.6993 85.2006 22.7653 85.7474C22.7653 86.2942 22.5675 86.513 21.9084 86.513C20.0628 86.513 18.2171 86.513 16.3715 86.513C15.5806 86.513 15.4487 86.1849 15.4487 85.638C15.3828 84.4897 15.3828 83.2866 15.3828 82.0288Z" fill="#FBFFFF"/>
<path d="M158.602 82.004C158.602 80.8493 158.602 79.6396 158.602 78.4848C158.602 77.9349 158.685 77.605 159.187 77.66C160.273 77.715 161.318 77.66 162.404 77.66C162.822 77.66 162.989 77.825 162.989 78.3748C162.989 78.8697 162.739 78.9797 162.446 78.9797C162.07 78.9797 161.736 78.9247 161.401 78.9797C160.816 79.0897 159.939 78.3748 159.939 80.1344C159.981 81.7841 160.816 81.0692 161.36 81.2342C161.736 81.3442 162.237 80.9043 162.362 81.839C162.446 82.8288 162.112 82.9938 161.443 82.9938C160.983 82.9938 160.231 82.3889 160.022 83.5437C159.772 84.8084 160.022 85.1933 161.025 85.1933C161.527 85.1933 162.028 85.1933 162.53 85.1933C162.906 85.1933 163.031 85.3582 163.031 85.8531C163.031 86.348 162.906 86.513 162.53 86.513C161.443 86.513 160.315 86.513 159.228 86.513C158.685 86.513 158.685 86.1281 158.685 85.6332C158.602 84.4235 158.602 83.2137 158.602 82.004Z" fill="#FBFFFF"/>
<path d="M31.687 82.3817C31.7377 81.3619 31.6363 80.5971 31.8391 79.8833C32.2952 78.1497 34.1198 77.2319 35.8936 77.8438C36.5018 78.0477 37.6675 77.4868 37.5155 78.9145C37.4648 79.4244 37.262 79.6793 36.8059 79.4244C35.7923 78.9145 34.6773 78.9655 34.0691 79.7303C33.3088 80.6481 33.1568 81.9738 33.5116 83.1465C33.9677 84.7781 34.2211 84.8801 36.4004 84.9311C36.8059 84.9311 37.4141 84.6761 37.5155 85.4409C37.6168 86.1548 37.0086 86.0528 36.6032 86.2057C33.765 87.2255 31.1802 85.6449 31.687 82.3817Z" fill="#FBFFFF"/>
<path d="M2.90495 83.002C2.90495 82.1791 2.85734 81.3013 2.90495 80.4784C2.95256 79.3812 2.52409 78.9424 1.61954 78.9972C1.19107 78.9972 0.572171 79.2715 0.619778 78.2841C0.667386 77.4612 1.23868 77.6806 1.61954 77.6806C3.00017 77.6257 4.38079 77.6806 5.76142 77.6806C6.18989 77.6806 6.47553 77.5709 6.52314 78.3389C6.52314 79.2167 6.09467 78.9972 5.76142 78.9424C4.61883 78.7229 4.38079 79.3264 4.47601 80.5333C4.57122 82.0694 4.52361 83.6054 4.47601 85.1415C4.47601 85.7449 4.71405 86.513 3.76189 86.513C2.80973 86.513 2.95256 85.8547 2.95256 85.1964C2.90495 84.4832 2.90495 83.77 2.90495 83.002Z" fill="#FBFFFF"/>
<path d="M98.0645 82.001C98.0645 80.8455 98.0645 79.6349 98.0645 78.4794C98.0645 77.8742 98.3105 77.6541 98.9873 77.6541C99.664 77.6541 100.095 77.7091 100.095 78.4794C100.033 80.3502 100.095 82.2211 100.033 84.0919C100.033 84.9723 100.341 85.3024 101.325 85.1924C102.002 85.1374 102.678 85.1924 103.355 85.1924C103.847 85.1924 103.97 85.4675 103.97 85.8527C103.97 86.2379 103.786 86.513 103.355 86.513C101.817 86.513 100.341 86.513 98.8027 86.513C98.126 86.513 98.126 86.0728 98.126 85.6326C98.0645 84.4221 98.0645 83.2115 98.0645 82.001Z" fill="#FBFFFF"/>
<path d="M148.176 82.056C148.176 83.2115 148.087 84.4221 148.176 85.5776C148.265 86.2379 147.82 86.513 146.75 86.513C145.68 86.513 145.234 86.2929 145.324 85.6326C145.413 83.2665 145.413 80.8455 145.324 78.4794C145.324 77.7641 145.948 77.6541 146.928 77.6541C147.909 77.6541 148.265 77.8742 148.265 78.4794C148.176 79.6349 148.176 80.8455 148.176 82.056Z" fill="#FBFFFF"/>
<path d="M70.2852 86.5627C70.3425 86.5627 70.3425 86.5627 70.3997 86.5627C70.3997 86.5627 70.457 86.62 70.457 86.6773C70.3997 86.7919 70.3425 86.7919 70.2852 86.6773C70.228 86.6773 70.2852 86.62 70.2852 86.5627Z" fill="#FBFFFF"/>
</svg>
